HIERARCHY
ROOT Hips
{
    OFFSET   0.000000   0.000000   0.000000
    CHANNELS 6 Xposition Yposition Zposition Zrotation Xrotation Yrotation
    JOINT Chest
    {
        OFFSET   0.000000   8.007230   0.000000
        CHANNELS 3 Zrotation Xrotation Yrotation
        JOINT Chest2
        {
            OFFSET   0.000000  22.077100   0.000000
            CHANNELS 3 Zrotation Xrotation Yrotation
            JOINT Neck
            {
                OFFSET   0.000000  23.254800   0.000000
                CHANNELS 3 Zrotation Xrotation Yrotation
                JOINT Head
                {
                    OFFSET   0.000010  14.370000   1.956600
                    CHANNELS 3 Zrotation Xrotation Yrotation
                    End Site
                    {
                        OFFSET   0.000000  19.566000   0.000000
                    }
                }
            }
            JOINT LeftCollar
            {
                OFFSET   3.911900  19.017000  -0.467062
                CHANNELS 3 Zrotation Xrotation Yrotation
                JOINT LeftShoulder
                {
                    OFFSET  10.383700   0.000000   0.000000
                    CHANNELS 3 Zrotation Xrotation Yrotation
                    JOINT LeftElbow
                    {
                        OFFSET  26.662100   0.001193   0.000835
                        CHANNELS 3 Zrotation Xrotation Yrotation
                        JOINT LeftWrist
                        {
                            OFFSET  28.869000  -0.000058  -0.000075
                            CHANNELS 3 Zrotation Xrotation Yrotation
                            JOINT LeftFinger0
                            {
                                OFFSET   2.044660  -2.323460   3.252850
                                CHANNELS 3 Zrotation Xrotation Yrotation
                                JOINT LeftFinger01
                                {
                                    OFFSET   3.088130   0.000000   0.000000
                                    CHANNELS 3 Zrotation Xrotation Yrotation
                                    JOINT LeftFinger02
                                    {
                                        OFFSET   2.639450   0.000000   0.000000
                                        CHANNELS 3 Zrotation Xrotation Yrotation
                                        End Site
                                        {
                                            OFFSET   2.582190   0.000000   0.000000
                                        }
                                    }
                                }
                            }
                            JOINT LeftFinger1
                            {
                                OFFSET   8.364480   0.000000   3.252850
                                CHANNELS 3 Zrotation Xrotation Yrotation
                                JOINT LeftFinger11
                                {
                                    OFFSET   4.646920   0.000000   0.000000
                                    CHANNELS 3 Zrotation Xrotation Yrotation
                                    JOINT LeftFinger12
                                    {
                                        OFFSET   2.323460   0.000000   0.000000
                                        CHANNELS 3 Zrotation Xrotation Yrotation
                                        End Site
                                        {
                                            OFFSET   2.273050   0.000000   0.000000
                                        }
                                    }
                                }
                            }
                            JOINT LeftFinger2
                            {
                                OFFSET   8.364490   0.000016   1.078090
                                CHANNELS 3 Zrotation Xrotation Yrotation
                                JOINT LeftFinger21
                                {
                                    OFFSET   5.111620   0.000000   0.000000
                                    CHANNELS 3 Zrotation Xrotation Yrotation
                                    JOINT LeftFinger22
                                    {
                                        OFFSET   2.788150   0.000012   0.000000
                                        CHANNELS 3 Zrotation Xrotation Yrotation
                                        End Site
                                        {
                                            OFFSET   2.727660   0.000000   0.000000
                                        }
                                    }
                                }
                            }
                            JOINT LeftFinger3
                            {
                                OFFSET   7.899780   0.000014  -1.078090
                                CHANNELS 3 Zrotation Xrotation Yrotation
                                JOINT LeftFinger31
                                {
                                    OFFSET   4.646930   0.000000   0.000000
                                    CHANNELS 3 Zrotation Xrotation Yrotation
                                    JOINT LeftFinger32
                                    {
                                        OFFSET   2.323470   0.000000   0.000000
                                        CHANNELS 3 Zrotation Xrotation Yrotation
                                        End Site
                                        {
                                            OFFSET   2.273050   0.000000   0.000000
                                        }
                                    }
                                }
                            }
                            JOINT LeftFinger4
                            {
                                OFFSET   7.435090   0.000000  -3.252850
                                CHANNELS 3 Zrotation Xrotation Yrotation
                                JOINT LeftFinger41
                                {
                                    OFFSET   3.717550   0.000000   0.000000
                                    CHANNELS 3 Zrotation Xrotation Yrotation
                                    JOINT LeftFinger42
                                    {
                                        OFFSET   1.858770   0.000000   0.000000
                                        CHANNELS 3 Zrotation Xrotation Yrotation
                                        End Site
                                        {
                                            OFFSET   1.818440   0.000000   0.000000
                                        }
                                    }
                                }
                            }
                        }
                    }
                }
            }
            JOINT RightCollar
            {
                OFFSET  -3.911900  19.017000  -0.467063
                CHANNELS 3 Zrotation Xrotation Yrotation
                JOINT RightShoulder
                {
                    OFFSET -10.383700   0.000023   0.000000
                    CHANNELS 3 Zrotation Xrotation Yrotation
                    JOINT RightElbow
                    {
                        OFFSET -26.662100   0.001246   0.001011
                        CHANNELS 3 Zrotation Xrotation Yrotation
                        JOINT RightWrist
                        {
                            OFFSET -28.869000  -0.000026  -0.000078
                            CHANNELS 3 Zrotation Xrotation Yrotation
                            JOINT RightFinger0
                            {
                                OFFSET  -2.044660  -2.323490   3.252850
                                CHANNELS 3 Zrotation Xrotation Yrotation
                                JOINT RightFinger01
                                {
                                    OFFSET  -3.088130   0.000000   0.000000
                                    CHANNELS 3 Zrotation Xrotation Yrotation
                                    JOINT RightFinger02
                                    {
                                        OFFSET  -2.639460   0.000000   0.000000
                                        CHANNELS 3 Zrotation Xrotation Yrotation
                                        End Site
                                        {
                                            OFFSET  -2.582190   0.000000   0.000000
                                        }
                                    }
                                }
                            }
                            JOINT RightFinger1
                            {
                                OFFSET  -8.364480   0.000000   3.252850
                                CHANNELS 3 Zrotation Xrotation Yrotation
                                JOINT RightFinger11
                                {
                                    OFFSET  -4.646920   0.000000   0.000000
                                    CHANNELS 3 Zrotation Xrotation Yrotation
                                    JOINT RightFinger12
                                    {
                                        OFFSET  -2.323470   0.000000   0.000000
                                        CHANNELS 3 Zrotation Xrotation Yrotation
                                        End Site
                                        {
                                            OFFSET  -2.273050   0.000000   0.000000
                                        }
                                    }
                                }
                            }
                            JOINT RightFinger2
                            {
                                OFFSET  -8.364480   0.000000   1.078090
                                CHANNELS 3 Zrotation Xrotation Yrotation
                                JOINT RightFinger21
                                {
                                    OFFSET  -5.111620   0.000000   0.000000
                                    CHANNELS 3 Zrotation Xrotation Yrotation
                                    JOINT RightFinger22
                                    {
                                        OFFSET  -2.788160   0.000000   0.000000
                                        CHANNELS 3 Zrotation Xrotation Yrotation
                                        End Site
                                        {
                                            OFFSET  -2.727660   0.000000   0.000000
                                        }
                                    }
                                }
                            }
                            JOINT RightFinger3
                            {
                                OFFSET  -7.899780   0.000000  -1.078090
                                CHANNELS 3 Zrotation Xrotation Yrotation
                                JOINT RightFinger31
                                {
                                    OFFSET  -4.646930   0.000000   0.000000
                                    CHANNELS 3 Zrotation Xrotation Yrotation
                                    JOINT RightFinger32
                                    {
                                        OFFSET  -2.323470   0.000000   0.000000
                                        CHANNELS 3 Zrotation Xrotation Yrotation
                                        End Site
                                        {
                                            OFFSET  -2.273050   0.000000   0.000000
                                        }
                                    }
                                }
                            }
                            JOINT RightFinger4
                            {
                                OFFSET  -7.435090   0.000000  -3.252850
                                CHANNELS 3 Zrotation Xrotation Yrotation
                                JOINT RightFinger41
                                {
                                    OFFSET  -3.717550   0.000000   0.000000
                                    CHANNELS 3 Zrotation Xrotation Yrotation
                                    JOINT RightFinger42
                                    {
                                        OFFSET  -1.858760   0.000000   0.000000
                                        CHANNELS 3 Zrotation Xrotation Yrotation
                                        End Site
                                        {
                                            OFFSET  -1.818440   0.000000   0.000000
                                        }
                                    }
                                }
                            }
                        }
                    }
                }
            }
        }
    }
    JOINT LeftHip
    {
        OFFSET   9.783010   0.000000   0.000000
        CHANNELS 3 Zrotation Xrotation Yrotation
        JOINT LeftKnee
        {
            OFFSET   0.000073 -41.789100   0.001749
            CHANNELS 3 Zrotation Xrotation Yrotation
            JOINT LeftAnkle
            {
                OFFSET   0.000111 -41.133200  -0.000179
                CHANNELS 3 Zrotation Xrotation Yrotation
                JOINT LeftToe
                {
                    OFFSET   0.000000  -6.358960  14.674500
                    CHANNELS 3 Zrotation Xrotation Yrotation
                    End Site
                    {
                        OFFSET   0.000000   0.000000   3.913200
                    }
                }
            }
        }
    }
    JOINT RightHip
    {
        OFFSET  -9.783010   0.000000   0.000000
        CHANNELS 3 Zrotation Xrotation Yrotation
        JOINT RightKnee
        {
            OFFSET   0.000424 -41.789200   0.005205
            CHANNELS 3 Zrotation Xrotation Yrotation
            JOINT RightAnkle
            {
                OFFSET   0.000000 -41.133200  -0.000155
                CHANNELS 3 Zrotation Xrotation Yrotation
                JOINT RightToe
                {
                    OFFSET   0.000000  -6.358960  14.674500
                    CHANNELS 3 Zrotation Xrotation Yrotation
                    End Site
                    {
                        OFFSET   0.000000   0.000000   3.913200
                    }
                }
            }
        }
    }
}
MOTION
Frames: 4
Frame Time:   0.016667
  0.675000  89.498300   1.500930  -1.967410 -17.450500   4.117110  -0.035560   8.147020   0.882579  -0.202530  16.292500   1.798050  -3.327100   1.440120   0.086431  -5.475510   2.890550  18.538600  -7.205960  -4.124330  -3.183540 -53.677000  -0.211206 -71.992300  21.379900 -22.074900 -65.363900  -6.040910  -8.255410  -4.050600  32.924800  54.062700 -72.976000 -64.307200   0.005404   0.011337 -36.168700   0.003597  -0.000623  -3.543350   0.128162  -2.066750  -2.901150   0.003503  -0.005030  -2.030810   0.002435  -0.001612  -4.391180  -0.114357   1.489700  -4.392990  -0.002730   0.003511  -2.925720  -0.001580  -0.000949 -59.567300  -6.070780   3.555560 -59.756000   0.007562   0.003180 -44.817000  -0.002135   0.000636 -70.280900  -9.423710   3.359060 -105.837000  -0.001767  -0.001647 -70.487200  -0.000385  -0.000287  12.394900  -3.372470   9.697470  69.681800  16.355500  -5.758350  -3.959790  -4.739200  17.310600 -13.020700  -9.754050   4.642160 -41.347700  26.491400  61.067600  21.372200   0.002671  -0.001916   5.686120   0.001001  -0.002990  27.571500   8.322690  15.493900  23.486300  -0.001580   0.001390  16.440400   0.004817   0.000256  28.167100   2.478960   4.618100  33.938500   0.000199   0.005509  22.603000   0.001050  -0.001024  28.690800   2.521120   4.595280  41.999100  -0.005470  -0.000188  27.971400  -0.000651   0.003240  33.229500   0.632205   0.964118  49.851900  -0.003904   0.001084  33.201400   0.000000  -0.001403   2.661740  19.248800   4.610320   0.971266   0.002767   1.994320  -0.955855  -2.713830   0.703968  -0.000000   0.000000  -0.000000   4.193100  17.350000  -0.808400  -1.618080   6.261920 -11.626900   0.675571  -6.962700  -3.769440  -0.000000   0.000000   0.000000
  0.689147  89.497900   1.518450  -2.025860 -17.467300   3.932690  -0.072705   8.144810   0.931729  -0.284759  16.287400   1.903520  -3.212620   1.455690   0.086556  -5.287160   2.924400  18.241000  -7.282860  -4.080780  -3.261470 -54.187200   0.173651 -71.826300  21.527200 -22.021800 -65.689000  -6.253310  -8.128730  -4.209500  33.369600  54.604900 -73.284900 -64.444800   0.005158   0.010987 -36.260300   0.003413  -0.000553  -3.499370   0.124282  -2.025440  -2.864970   0.003350  -0.005541  -2.005480   0.002329  -0.001479  -4.363990  -0.120182   1.574840  -4.365770  -0.002809   0.003322  -2.907590  -0.001619  -0.000933 -59.427100  -6.077590   3.579730 -59.617200   0.007622   0.003055 -44.712900  -0.002131   0.000169 -70.103500  -9.413830   3.388020 -105.574000  -0.001844  -0.001454 -70.312100  -0.000757  -0.000000  12.419400  -3.385450   9.603300  69.736900  16.389900  -5.751890  -3.889600  -4.921920  17.202300 -12.903700  -9.998330   4.606390 -41.380600  26.662300  61.436600  21.351400   0.002753  -0.001946   5.675740   0.001007  -0.003030  27.591100   8.353400  15.540500  23.498900  -0.001606   0.001378  16.449200   0.004767   0.000207  28.176700   2.501900   4.659380  34.023600   0.000203   0.005490  22.659700   0.001095  -0.001072  28.687800   2.543770   4.636710  41.978300  -0.005425  -0.000213  27.957500  -0.000651   0.003183  33.043400   0.670526   1.030790  49.574000  -0.003921   0.001108  33.016300   0.000000  -0.001418   2.658000  19.272900   4.600350   0.940819   0.060064   2.054780  -0.922170  -2.796750   0.829758  -0.000000   0.000000   0.000000   4.191640  17.344500  -0.780075  -1.667910   6.311500 -11.541500   0.712162  -6.967880  -3.706200  -0.000000   0.000000   0.000000
  0.702593  89.496900   1.533090  -2.083690 -17.487200   3.767640  -0.094740   8.143920   0.968506  -0.335353  16.285100   1.981300  -3.147900   1.484070   0.086857  -5.181440   2.982340  17.924500  -7.317930  -4.045250  -3.339420 -53.873900   0.516737 -71.763300  21.589700 -22.168400 -65.874900  -6.343960  -7.988550  -4.340240  33.804200  55.146200 -73.609200 -64.590000   0.004875   0.010562 -36.357000   0.003205  -0.000438  -3.469160   0.120402  -1.984140  -2.840120   0.003198  -0.006056  -1.988080   0.002225  -0.001372  -4.336720  -0.127045   1.673960  -4.338550  -0.002873   0.003103  -2.889470  -0.001647  -0.000902 -59.337400  -6.083450   3.595170 -59.528500   0.007653   0.002900 -44.646300  -0.002111  -0.000345 -69.988500  -9.407470   3.406750 -105.403000  -0.001933  -0.001271 -70.198600  -0.001139   0.000270  12.428200  -3.393000   9.525950  69.762700  16.459800  -5.741590  -3.804230  -5.074370  17.090400 -12.726300 -10.086300   4.599100 -41.451500  26.844800  61.825800  21.293800   0.002819  -0.001979   5.646910   0.001008  -0.003069  27.567000   8.403400  15.638600  23.500700  -0.001633   0.001366  16.450500   0.004713   0.000159  28.175300   2.550470   4.748910  34.052300   0.000206   0.005470  22.678900   0.001141  -0.001120  28.680600   2.592530   4.726140  41.881300  -0.005378  -0.000237  27.892900  -0.000651   0.003129  32.690700   0.742441   1.157800  49.047400  -0.003940   0.001134  32.665600   0.000000  -0.001436   2.655780  19.300600   4.598460   0.912166   0.115282   2.099330  -0.886098  -2.849610   0.938743  -0.000000   0.000000  -0.000000   4.193600  17.344000  -0.719009  -1.708470   6.323270 -11.512100   0.746581  -6.969010  -3.645850   0.000000   0.000000   0.000000
  0.721435  89.495600   1.541550  -2.149680 -17.507100   3.620890  -0.095501   8.144340   0.976406  -0.338938  16.285900   1.997150  -3.148710   1.513380   0.087328  -5.185440   3.041110  17.664800  -7.312090  -4.011100  -3.338710 -53.056300   0.803764 -71.823700  21.771400 -22.603000 -65.555300  -6.297250  -7.826090  -4.482300  33.671600  55.083200 -73.541400 -64.735300   0.004559   0.009859 -36.453800   0.002977  -0.000327  -3.578180   0.126825  -2.031070  -2.929440   0.003055  -0.006563  -2.050600   0.002115  -0.001293  -4.423240  -0.131870   1.700950  -4.425230  -0.002926   0.002861  -2.947210  -0.001663  -0.000870 -59.402100  -6.085290   3.583940 -59.592800   0.007653   0.002721 -44.694600  -0.002069  -0.000898 -69.999300  -9.407660   3.406180 -105.419000  -0.002035  -0.001101 -70.209500  -0.001519   0.000533  12.426300  -3.393170   9.501430  69.733600  16.559900  -5.732490  -3.730450  -5.126490  17.000100 -12.562400  -9.931040   4.645910 -41.557900  26.984000  62.103300  21.180000   0.002880  -0.002016   5.590000   0.001000  -0.003100  27.474400   8.450790  15.777100  23.442200  -0.001639   0.001349  16.409500   0.004650   0.000120  28.157700   2.625260   4.889460  33.971900   0.000207   0.005441  22.625400   0.001194  -0.001170  28.668400   2.668580   4.866020  41.641200  -0.005321  -0.000258  27.733100  -0.000651   0.003077  32.275000   0.825687   1.308900  48.426800  -0.003958   0.001158  32.252300   0.000000  -0.001458   2.657270  19.366700   4.620630   0.889532   0.059485   2.127790  -0.844051  -2.848510   1.024260   0.000000   0.000000   0.000000   4.203470  17.363000  -0.631881  -1.735800   6.316920 -11.529300   0.778786  -6.954040  -3.582760   0.000000   0.000000   0.000000
